<?xml version="1.0" encoding="UTF-8"?>
<svg width="2500px" height="2500px" viewBox="0 0 2500 2500" xmlns="http://www.w3.org/2000/svg" xmlns:xlink="http://www.w3.org/1999/xlink" version="1.1">
 <!-- Generated by Pixelmator Pro 2.0 -->
 <g id="Backdrop">
  <path id="Mechanism-Backdrop" d="M1894.46 1268.019 L2100.094 1268.019 2100.094 940.489 1894.46 940.489 Z" fill="#000000" fill-opacity="1" stroke="none"/>
  <defs>
   <linearGradient id="linear-gradient" gradientUnits="userSpaceOnUse" x1="1115.47" y1="1060.541" x2="973.433" y2="2057.442">
    <stop offset="0" stop-color="#000000" stop-opacity="1"/>
    <stop offset="0.533" stop-color="#5a5a5a" stop-opacity="1"/>
    <stop offset="1" stop-color="#292929" stop-opacity="1"/>
   </linearGradient>
  </defs>
  <path id="Key-Backdrop" d="M483.818 1241.367 C385.046 1241.367 461.997 1329.476 305.569 1431.875 305.569 1431.875 306.291 1501.033 51.176 1613.156 46.836 1615.063 202.557 1893.008 301.329 1893.008 L1570.11 2070.889 C1668.883 2070.889 1902.94 1868.495 1902.94 1768.377 L2056.635 1488.526 C2056.635 1388.408 2070.968 1391.244 1972.196 1391.244 L483.818 1241.367 Z" fill-opacity="1" fill="url(#linear-gradient)" stroke="none"/>
 </g>
 <g id="Mechanism">
  <defs>
   <linearGradient id="linear-gradient-1" gradientUnits="userSpaceOnUse" x1="865.853" y1="476.73" x2="843.199" y2="939.382">
    <stop offset="0" stop-color="#282a29" stop-opacity="1"/>
    <stop offset="0.501" stop-color="#424242" stop-opacity="1"/>
    <stop offset="1" stop-color="#000000" stop-opacity="1"/>
   </linearGradient>
  </defs>
  <path id="Rectangle" d="M2336.921 1010.328 L684.292 929.404 C621.729 926.341 576.083 820.289 582.339 692.531 588.595 564.774 644.384 463.69 706.947 466.754 L2359.576 547.676 2336.921 1010.328 Z" fill-opacity="1" fill="url(#linear-gradient-1)" stroke="none"/>
  <path id="Path" d="M2462.485 784.599 C2468.741 656.841 2423.095 550.789 2360.531 547.726 2297.968 544.662 2242.179 645.747 2235.923 773.505 2229.667 901.263 2275.314 1007.314 2337.877 1010.378 2400.44 1013.441 2456.229 912.356 2462.485 784.599 Z" fill="#000000" fill-opacity="1" stroke="none"/>
 </g>
 <g id="Side-panel">
  <path id="side-copy" d="M452.005 1170.644 C453.4 1169.967 484.703 1170.502 484.703 1170.502 484.703 1170.502 470.637 1567.501 470.637 1567.501 470.637 1567.501 361.984 1575.456 132.794 1749.231 125.632 1754.661 46.066 1590.338 53.296 1587.07 444.821 1410.101 342.429 1223.885 452.005 1170.644 Z" fill="#959595" fill-opacity="1" stroke="none"/>
  <path id="side" d="M456.084 1175.802 C462.599 1174.09 485.142 1174.171 485.142 1174.171 485.142 1174.171 478.056 1574.921 478.056 1574.921 478.056 1574.921 369.404 1582.876 140.214 1756.651 133.052 1762.081 44.1 1587.09 51.496 1584.218 449.183 1429.78 350.351 1203.591 456.084 1175.802 Z" fill="#000000" fill-opacity="1" stroke="none"/>
 </g>
 <g id="Key-Rods">
  <g id="Space-Bar">
   <path id="Rod-copy-1" d="M990.913 1794.079 L1028.232 1792.811 C1028.232 1792.811 1043.956 1857.324 1080.067 1830.904 1187.442 1752.344 1521.123 1365.434 1521.123 1365.434 L1563.761 1419.701 C1563.761 1419.701 1227.217 1791.379 1099.448 1887.109 1078.194 1903.034 1057.046 1912.699 1019.985 1892.924 982.924 1873.148 990.913 1794.079 990.913 1794.079 Z" fill="#000000" fill-opacity="1" stroke="none"/>
   <path id="Rod-copy" d="M624.164 1754.86 L661.483 1753.592 C661.483 1753.592 665.606 1812.751 713.318 1791.685 801.853 1752.594 1301.709 1349.534 1301.709 1349.534 L1344.348 1403.802 C1344.348 1403.802 887.465 1749.71 732.699 1847.89 710.273 1862.117 690.297 1873.48 653.236 1853.705 616.175 1833.93 624.164 1754.86 624.164 1754.86 Z" fill="#000000" fill-opacity="1" stroke="none"/>
  </g>
  <g id="Middle-Row">
   <path id="Rod" d="M1582.375 1662.643 L1619.694 1661.375 C1619.694 1661.375 1634.38 1736.075 1671.529 1699.468 1729.984 1641.864 1948.29 1228.698 1948.29 1228.698 L1990.929 1282.966 C1990.929 1282.966 1841.614 1575.498 1706.846 1740.765 1686.281 1765.984 1648.508 1781.263 1611.447 1761.488 1574.386 1741.712 1582.375 1662.643 1582.375 1662.643 Z" fill="#000000" fill-opacity="1" stroke="none"/>
   <path id="Rod-1" d="M1303.604 1635.084 L1340.923 1633.816 C1340.923 1633.816 1355.608 1708.516 1392.757 1671.908 1451.213 1614.304 1824.274 1175.7 1824.274 1175.7 L1866.912 1229.967 C1866.912 1229.967 1562.843 1547.938 1428.075 1713.206 1407.51 1738.425 1369.737 1753.703 1332.676 1733.928 1295.614 1714.153 1303.604 1635.084 1303.604 1635.084 Z" fill="#000000" fill-opacity="1" stroke="none"/>
   <path id="Rod-2" d="M1007.873 1605.405 L1045.192 1604.137 C1045.192 1604.137 1060.915 1668.649 1097.026 1642.229 1204.402 1563.669 1538.082 1176.76 1538.082 1176.76 L1580.721 1231.027 C1580.721 1231.027 1244.177 1602.705 1116.408 1698.435 1095.153 1714.36 1074.006 1724.024 1036.944 1704.249 999.883 1684.474 1007.873 1605.405 1007.873 1605.405 Z" fill="#000000" fill-opacity="1" stroke="none"/>
   <path id="Rod-3" d="M717.441 1576.786 L754.76 1575.518 C754.76 1575.518 758.883 1634.676 806.595 1613.61 895.13 1574.52 1394.987 1171.46 1394.987 1171.46 L1437.625 1225.727 C1437.625 1225.727 980.742 1571.636 825.976 1669.816 803.55 1684.043 783.575 1695.405 746.513 1675.63 709.452 1655.855 717.441 1576.786 717.441 1576.786 Z" fill="#000000" fill-opacity="1" stroke="none"/>
   <path id="Rod-4" d="M440.79 1548.167 L478.109 1546.899 C478.109 1546.899 482.231 1606.057 529.943 1584.991 618.479 1545.901 1145.894 1176.76 1145.894 1176.76 L1188.533 1231.027 549.325 1641.197 C549.325 1641.197 506.923 1666.786 469.862 1647.011 432.8 1627.236 440.79 1548.167 440.79 1548.167 Z" fill="#000000" fill-opacity="1" stroke="none"/>
  </g>
  <g id="Top-Row">
   <path id="Rod-5" d="M1698.972 1467.609 L1736.291 1466.341 C1736.291 1466.341 1750.976 1541.041 1788.125 1504.433 1846.581 1446.829 2011.888 1207.499 2011.888 1207.499 L2054.527 1261.766 C2054.527 1261.766 1958.211 1380.464 1823.443 1545.731 1802.878 1570.95 1765.105 1586.229 1728.044 1566.453 1690.982 1546.678 1698.972 1467.609 1698.972 1467.609 Z" fill="#000000" fill-opacity="1" stroke="none"/>
   <path id="Rod-6" d="M1420.2 1440.05 L1457.519 1438.782 C1457.519 1438.782 1472.205 1513.482 1509.354 1476.874 1567.809 1419.27 1733.116 1179.94 1733.116 1179.94 L1775.755 1234.207 C1775.755 1234.207 1679.439 1352.904 1544.671 1518.172 1524.106 1543.391 1486.333 1558.669 1449.272 1538.894 1412.211 1519.119 1420.2 1440.05 1420.2 1440.05 Z" fill="#000000" fill-opacity="1" stroke="none"/>
   <path id="Rod-7" d="M1124.469 1410.371 L1161.788 1409.103 C1161.788 1409.103 1177.512 1473.615 1213.623 1447.195 1320.998 1368.635 1492.504 1157.68 1492.504 1157.68 L1535.142 1211.948 C1535.142 1211.948 1360.773 1407.67 1233.004 1503.401 1211.75 1519.326 1190.602 1528.99 1153.541 1509.215 1116.48 1489.44 1124.469 1410.371 1124.469 1410.371 Z" fill="#000000" fill-opacity="1" stroke="none"/>
   <path id="Rod-8" d="M834.038 1381.752 L871.357 1380.484 C871.357 1380.484 875.48 1439.642 923.192 1418.576 1011.727 1379.486 1290.05 1122.701 1290.05 1122.701 L1332.688 1176.969 C1332.688 1176.969 1097.339 1376.602 942.573 1474.782 920.146 1489.009 900.171 1500.371 863.11 1480.596 826.048 1460.821 834.038 1381.752 834.038 1381.752 Z" fill="#000000" fill-opacity="1" stroke="none"/>
   <path id="Rod-9" d="M557.386 1353.133 L594.705 1351.865 C594.705 1351.865 598.828 1411.023 646.54 1389.957 735.075 1350.867 998.559 1192.659 998.559 1192.659 L1041.197 1246.927 665.921 1446.162 C665.921 1446.162 623.519 1471.752 586.458 1451.977 549.397 1432.202 557.386 1353.133 557.386 1353.133 Z" fill="#000000" fill-opacity="1" stroke="none"/>
  </g>
 </g>
 <g id="Paper">
  <path id="Sheet" d="M724.256 929.89 C724.446 930.255 1991.978 992.428 1991.978 992.428 1991.978 992.428 1716.014 765.043 2021.671 365.725 2021.977 365.325 844.369 349.733 844.032 350.087 728.737 471.293 572.328 638.06 724.256 929.89 Z" fill="#cbcbcb" fill-opacity="1" stroke="none"/>
  <path id="Line" d="M835.004 487.039 L1851.253 509.448" fill="none" stroke="#292929" stroke-width="15" stroke-opacity="1" stroke-linejoin="round"/>
  <path id="Line-copy" d="M810.625 571.836 L1826.874 594.246" fill="none" stroke="#292929" stroke-width="15" stroke-opacity="1" stroke-linejoin="round"/>
  <path id="Line-copy-1" d="M795.785 656.634 L1812.034 679.043" fill="none" stroke="#292929" stroke-width="15" stroke-opacity="1" stroke-linejoin="round"/>
  <path id="Line-copy-2" d="M785.186 737.191 L1801.435 759.601" fill="none" stroke="#292929" stroke-width="15" stroke-opacity="1" stroke-linejoin="round"/>
  <path id="Line-copy-3" d="M785.186 818.809 L1801.435 841.218" fill="none" stroke="#292929" stroke-width="15" stroke-opacity="1" stroke-linejoin="round"/>
 </g>
 <g id="Face-Plate">
  <defs>
   <linearGradient id="linear-gradient-2" gradientUnits="userSpaceOnUse" x1="547.59" y1="816.188" x2="1976.818" y2="1233.693">
    <stop offset="0" stop-color="#b9b9b9" stop-opacity="1"/>
    <stop offset="0.339" stop-color="#292929" stop-opacity="1"/>
    <stop offset="0.618" stop-color="#888888" stop-opacity="1"/>
    <stop offset="1" stop-color="#000000" stop-opacity="1"/>
   </linearGradient>
  </defs>
  <path id="Depth" d="M489.518 1211.665 L2054.289 1371.896 C2054.289 1371.896 2093.842 1035.408 1848.171 768.885 1649.116 552.934 1466.098 907.201 1269.57 918.779 1011.414 933.989 976.369 686.321 753.984 665.559 543.44 645.904 489.518 1211.665 489.518 1211.665 Z" fill-opacity="1" fill="url(#linear-gradient-2)" stroke="none"/>
  <defs>
   <linearGradient id="linear-gradient-3" gradientUnits="userSpaceOnUse" x1="540.135" y1="845.656" x2="1960.362" y2="1263.319">
    <stop offset="0" stop-color="#000000" stop-opacity="1"/>
    <stop offset="0.149" stop-color="#646464" stop-opacity="1"/>
    <stop offset="0.707" stop-color="#3b3b3b" stop-opacity="1"/>
    <stop offset="1" stop-color="#292929" stop-opacity="1"/>
   </linearGradient>
  </defs>
  <path id="Front" d="M483.076 1242.084 C483.08 1242.2 2037.33 1401.575 2037.33 1401.575 2037.33 1401.575 2076.882 1065.087 1831.212 798.564 1632.157 582.614 1449.138 936.88 1252.611 948.458 994.455 963.668 959.41 716 737.025 695.239 526.48 675.583 475.897 1037.317 483.076 1242.084 Z" fill-opacity="1" fill="url(#linear-gradient-3)" stroke="none"/>
  <path id="P" d="M829.85 931.636 C830.627 909.624 821.815 895.819 803.113 890.137 801.967 889.789 800.819 889.44 799.669 889.091 798.518 888.741 796.493 888.322 793.589 887.832 792.43 887.48 791.266 887.225 790.097 887.067 788.926 886.908 787.758 886.652 786.591 886.299 L788.34 886.829 C777.749 884.805 769.136 882.797 762.562 880.81 733.914 872.155 719.555 858.619 720.18 840.409 720.834 821.384 739.531 817.988 775.181 829.864 778.138 830.849 780.79 831.733 783.141 832.516 785.486 833.297 787.817 834.271 790.136 835.437 L789.262 835.146 829.293 851.934 C842.505 857.451 857.69 863.031 874.737 868.653 886.259 872.452 900.969 876.749 918.696 881.505 L917.945 881.257 C937.28 886.209 954.115 890.81 968.592 895.09 982.807 899.292 994.604 902.959 1004.086 906.118 1033.145 915.798 1056.263 925.17 1073.934 934.338 1086.391 941.391 1097.893 949.461 1108.478 958.536 1118.906 967.475 1127.625 976.827 1134.696 986.614 1141.693 996.299 1147.113 1006.297 1150.992 1016.636 1154.847 1026.91 1156.572 1037.084 1156.187 1047.202 1155.053 1076.932 1142.177 1096.921 1116.91 1107.449 1090.744 1118.352 1051.382 1118.737 996.671 1107.737 L948.632 1098.079 C941.421 1096.629 935.119 1095.362 929.747 1094.282 924.339 1093.195 920.39 1092.221 917.92 1091.363 915.916 1091.321 914.771 1091.723 914.489 1092.569 914.207 1093.416 914.001 1095.634 913.872 1099.221 L913.503 1109.445 C911.925 1153.189 912.493 1179.21 915.199 1187.508 916.98 1193.499 923.549 1197.264 934.79 1198.801 937.214 1199.131 939.392 1199.341 941.326 1199.429 943.256 1199.516 945.424 1199.549 947.828 1199.527 950.212 1199.854 952.711 1200.11 955.323 1200.294 957.927 1200.477 959.932 1200.665 961.341 1200.859 962.749 1201.053 963.923 1201.128 964.864 1201.083 965.805 1201.039 966.741 1201.081 967.673 1201.21 988.81 1204.126 998.892 1213.005 998.344 1227.903 997.745 1244.151 983.672 1250.792 955.374 1247.748 954.441 1247.298 953.501 1247.022 952.553 1246.92 951.605 1246.818 950.536 1246.702 949.347 1246.574 948.157 1246.445 947.09 1246.155 946.147 1245.702 L911.119 1238.144 C901.114 1235.954 886.348 1233.766 866.566 1231.56 849.537 1229.661 835.151 1228.619 823.552 1228.464 L775.544 1227.821 C773.786 1227.631 772.017 1227.635 770.238 1227.833 L763.142 1227.069 C726.791 1223.159 708.377 1211.698 709.026 1192.801 709.302 1184.759 713.775 1178.78 722.384 1174.893 730.915 1171.041 740.961 1169.93 752.468 1171.518 760.853 1172.675 769.435 1174.445 778.207 1176.82 780.542 1177.14 782.868 1177.555 785.184 1178.067 787.494 1178.576 790.09 1179.027 792.968 1179.421 811.734 1181.985 821.353 1172.288 822.127 1150.366 Z M922.805 935.214 C920.752 936.418 919.463 944.216 918.944 958.602 L916.183 1035.149 C916.015 1039.818 921.879 1044.07 933.646 1047.863 936.571 1048.537 938.997 1049.185 940.928 1049.808 942.855 1050.43 945.021 1051.017 947.425 1051.57 949.821 1052.122 952.81 1052.721 956.384 1053.367 959.942 1054.01 964.773 1055.035 970.855 1056.436 985.181 1059.39 998.581 1061.965 1011.096 1064.174 1023.41 1066.347 1034.475 1067.737 1044.34 1068.364 1074.86 1069.288 1090.145 1056.903 1091.109 1031.228 1092.424 996.228 1064.694 970.105 1004.446 951.822 955.933 937.099 927.95 931.322 922.805 935.214 Z" fill="#b19551" fill-opacity="1" stroke="none"/>
  <path id="G" d="M1540.132 889.761 C1583.987 881.772 1625.276 884.504 1663.448 898.68 L1663.537 898.038 C1666.215 878.743 1681.91 866.47 1711.285 861.159 1742.875 855.446 1757.254 864.718 1753.651 889.022 1753.118 892.612 1752.653 895.751 1752.254 898.44 1751.856 901.127 1751.234 903.192 1750.388 904.634 L1740.164 935.53 C1736.881 945.082 1734.563 954.471 1733.202 963.713 1732.62 967.669 1732.015 973.886 1731.388 982.361 1730.761 990.826 1730.145 1001.322 1729.539 1013.842 L1728.671 1019.722 C1725.017 1044.464 1707.077 1058.045 1675.63 1060.502 1646.354 1062.79 1633.786 1051.355 1637.262 1026.147 L1639.752 1008.086 C1643.203 983.058 1634.729 964.733 1614.638 953.391 1594.963 942.285 1567.323 939.533 1532.473 944.805 1490.187 951.201 1456.888 968.85 1431.672 997.278 1407.256 1024.805 1392.929 1059.769 1388.147 1102.52 1383.135 1147.335 1389.829 1181.885 1408.489 1206.893 1427.554 1232.444 1457.309 1245.894 1498.953 1246.861 1531.583 1247.619 1558.673 1240.635 1579.659 1225.61 1601.175 1210.206 1614.172 1187.587 1618.263 1157.902 1619.651 1147.829 1618.53 1140.841 1614.909 1136.966 1611.301 1133.105 1604.269 1131.4 1593.894 1131.836 1591.725 1131.927 1589.413 1132.123 1586.958 1132.423 1584.511 1132.723 1581.413 1132.95 1577.674 1133.106 1574.959 1133.611 1571.618 1133.946 1567.655 1134.11 1563.71 1134.273 1560.697 1134.397 1558.608 1134.484 1526.839 1135.797 1512.482 1127.686 1514.689 1110.136 1516.952 1092.134 1531.921 1082.108 1560.266 1080.062 1564.467 1079.759 1567.881 1079.611 1570.5 1079.618 1573.128 1079.625 1576.016 1079.713 1579.168 1079.882 L1583.997 1079.536 C1600.614 1079.945 1615.504 1080.101 1628.577 1079.997 1641.838 1079.892 1653.462 1079.5 1663.383 1078.817 1690.768 1076.931 1720.811 1072.947 1753.735 1066.749 1757.679 1066.031 1761.948 1065.397 1766.546 1064.847 1771.165 1064.295 1776.448 1063.802 1782.407 1063.37 1819.617 1060.672 1837.102 1069.564 1833.818 1090.054 1832.364 1099.131 1825.958 1106.864 1814.698 1113.212 1803.565 1119.486 1791.336 1122.881 1778.049 1123.444 1773.44 1123.639 1769.343 1123.813 1765.752 1123.965 1762.173 1124.116 1759.451 1124.015 1757.576 1123.662 1755.639 1123.745 1754.061 1123.596 1752.839 1123.217 L1747.067 1123.465 C1730.581 1124.174 1719.873 1141.804 1714.764 1176.168 L1707.545 1224.724 C1706.613 1230.992 1706.05 1236.838 1705.854 1242.269 1705.659 1247.696 1705.525 1252.704 1705.454 1257.294 1705.692 1259.804 1705.579 1262.618 1705.114 1265.733 1704.65 1268.845 1704.295 1271.23 1704.047 1272.888 1700.842 1294.391 1683.943 1304.317 1654.067 1302.782 1625.681 1301.323 1613.153 1290.975 1615.845 1271.644 L1615.928 1271.051 C1616.038 1270.26 1616.397 1269.676 1617.007 1269.3 L1612.53 1271.527 C1576.143 1291.211 1532.199 1299.354 1481.863 1296.685 1421.913 1293.505 1378.316 1274.466 1348.722 1240.316 1334.092 1223.849 1324.264 1205.24 1319.066 1184.353 1313.894 1163.573 1312.644 1140.475 1315.308 1114.873 1321.142 1058.792 1341.813 1011.58 1378.607 972.322 1418.278 930.141 1471.32 902.297 1540.132 889.761 Z" fill="#b19551" fill-opacity="1" stroke="none"/>
 </g>
 <g id="Spacebar">
  <path id="Path-copy" d="M362.93 1674.107 C362.93 1674.107 362.904 1674.571 362.846 1732.898 L362.846 1732.898 C358.337 1756.695 382.724 1779.49 417.583 1783.866 L1396.59 1906.788 C1440.853 1912.345 1481.765 1894.975 1487.581 1867.912 L1487.581 1867.912 C1489.176 1808.85 1489.075 1809.552 1489.075 1809.552 L362.93 1674.107 Z" fill="#000000" fill-opacity="1" stroke="none"/>
  <defs>
   <path id="Path-1" d="M435.035 1639.742 C400.037 1635.734 368.225 1651.841 363.712 1675.664 L363.712 1675.664 C359.203 1699.461 383.589 1722.256 418.448 1726.632 L1397.456 1849.554 C1441.718 1855.112 1482.631 1837.741 1488.447 1810.678 L1488.447 1810.678 C1494.27 1783.582 1462.631 1757.427 1418.171 1752.335 Z"/>
  </defs>
  <defs>
   <linearGradient id="linear-gradient-4" gradientUnits="userSpaceOnUse" x1="857.666" y1="1815.051" x2="889.755" y2="1562.685">
    <stop offset="0.098" stop-color="#797979" stop-opacity="1"/>
    <stop offset="0.2" stop-color="#292929" stop-opacity="1"/>
   </linearGradient>
  </defs>
  <use id="Path-2" xlink:href="#Path-1" fill="url(#linear-gradient-4)" fill-opacity="1" stroke="none"/>
  <defs>
   <linearGradient id="linear-gradient-5" gradientUnits="userSpaceOnUse" x1="363.175" y1="1744.86" x2="1489.138" y2="1744.86">
    <stop offset="0" stop-color="#797979" stop-opacity="1"/>
    <stop offset="0.753" stop-color="#303030" stop-opacity="1"/>
   </linearGradient>
  </defs>
  <use id="Path-3" xlink:href="#Path-1" fill="url(#linear-gradient-5)" fill-opacity="0.496" stroke="none"/>
 </g>
 <g id="Bottom-Row-Keys">
  <g id="Key">
   <g id="Cap">
    <defs>
     <linearGradient id="linear-gradient-6" gradientUnits="userSpaceOnUse" x1="270.116" y1="1587.608" x2="737.99" y2="1553.632">
      <stop offset="0" stop-color="#c4b58a" stop-opacity="1"/>
      <stop offset="1" stop-color="#121212" stop-opacity="1"/>
     </linearGradient>
    </defs>
    <path id="Bottom" d="M570.644 1501.652 C570.56 1497.485 570.711 1460.6 570.711 1460.6 570.711 1460.6 334.157 1467.473 334.157 1467.473 334.157 1467.473 334.234 1504.276 334.193 1507.466 333.924 1528.389 379.814 1547.538 449.451 1548.293 528.886 1549.156 571.014 1520.012 570.644 1501.652 Z" fill-opacity="1" fill="url(#linear-gradient-6)" stroke="none"/>
    <path id="Rim" d="M569.881 1461.715 C564.513 1434.615 505.193 1418.186 442.81 1422.36 386.088 1426.155 340.029 1446.297 335.093 1469.266 329.726 1494.239 373.787 1516.58 440.058 1517.173 514.207 1517.837 575.818 1491.692 569.881 1461.715 Z" fill="#afa589" fill-opacity="1" stroke="none"/>
    <path id="Shadow" d="M548.104 1459.131 C545.154 1440.723 495.105 1429.471 440.612 1432.673 390.496 1435.618 350.336 1450.126 347.228 1466.078 343.937 1482.977 382.78 1497.12 438.527 1496.703 499.753 1496.246 551.26 1478.83 548.104 1459.131 Z" fill="#000000" fill-opacity="1" stroke="none"/>
    <path id="Center" d="M556.926 1468.601 C553.617 1449.473 502.018 1437.451 446.158 1440.376 394.869 1443.061 353.916 1457.768 350.855 1474.252 347.608 1491.732 387.501 1506.727 444.704 1506.761 507.66 1506.799 560.473 1489.102 556.926 1468.601 Z" fill="#c4b58a" fill-opacity="1" stroke="none"/>
   </g>
  </g>
  <g id="Key-copy">
   <g id="Cap-1">
    <defs>
     <linearGradient id="linear-gradient-7" gradientUnits="userSpaceOnUse" x1="546.768" y1="1616.227" x2="1014.642" y2="1582.251">
      <stop offset="0" stop-color="#c4b58a" stop-opacity="1"/>
      <stop offset="1" stop-color="#121212" stop-opacity="1"/>
     </linearGradient>
    </defs>
    <path id="Bottom-1" d="M847.296 1530.271 C847.212 1526.104 847.363 1489.219 847.363 1489.219 847.363 1489.219 610.809 1496.092 610.809 1496.092 610.809 1496.092 610.885 1532.895 610.845 1536.085 610.576 1557.008 656.466 1576.157 726.103 1576.913 805.538 1577.775 847.665 1548.631 847.296 1530.271 Z" fill-opacity="1" fill="url(#linear-gradient-7)" stroke="none"/>
    <path id="Rim-1" d="M846.532 1490.334 C841.165 1463.234 781.845 1446.805 719.461 1450.979 662.739 1454.774 616.681 1474.916 611.744 1497.885 606.377 1522.859 650.438 1545.199 716.709 1545.792 790.859 1546.456 852.47 1520.311 846.532 1490.334 Z" fill="#afa589" fill-opacity="1" stroke="none"/>
    <path id="Shadow-1" d="M824.755 1487.75 C821.806 1469.342 771.757 1458.09 717.264 1461.292 667.147 1464.237 626.987 1478.746 623.88 1494.697 620.589 1511.596 659.432 1525.739 715.178 1525.323 776.404 1524.865 827.912 1507.449 824.755 1487.75 Z" fill="#000000" fill-opacity="1" stroke="none"/>
    <path id="Center-1" d="M833.578 1497.22 C830.269 1478.092 778.67 1466.07 722.81 1468.995 671.521 1471.68 630.568 1486.387 627.506 1502.871 624.259 1520.352 664.152 1535.346 721.356 1535.38 784.312 1535.418 837.125 1517.721 833.578 1497.22 Z" fill="#c4b58a" fill-opacity="1" stroke="none"/>
   </g>
  </g>
  <g id="Key-copy-1">
   <g id="Cap-2">
    <defs>
     <linearGradient id="linear-gradient-8" gradientUnits="userSpaceOnUse" x1="837.199" y1="1644.846" x2="1305.073" y2="1610.87">
      <stop offset="0" stop-color="#c4b58a" stop-opacity="1"/>
      <stop offset="1" stop-color="#121212" stop-opacity="1"/>
     </linearGradient>
    </defs>
    <path id="Bottom-2" d="M1137.727 1558.89 C1137.643 1554.723 1137.794 1517.838 1137.794 1517.838 1137.794 1517.838 901.24 1524.711 901.24 1524.711 901.24 1524.711 901.317 1561.514 901.276 1564.704 901.007 1585.627 946.897 1604.776 1016.534 1605.532 1095.969 1606.394 1138.096 1577.25 1137.727 1558.89 Z" fill-opacity="1" fill="url(#linear-gradient-8)" stroke="none"/>
    <path id="Rim-2" d="M1136.964 1518.953 C1131.596 1491.853 1072.276 1475.424 1009.893 1479.598 953.171 1483.393 907.112 1503.535 902.176 1526.504 896.808 1551.478 940.87 1573.818 1007.141 1574.411 1081.29 1575.075 1142.901 1548.931 1136.964 1518.953 Z" fill="#afa589" fill-opacity="1" stroke="none"/>
    <path id="Shadow-2" d="M1115.187 1516.369 C1112.237 1497.961 1062.188 1486.709 1007.695 1489.911 957.579 1492.856 917.418 1507.365 914.311 1523.316 911.02 1540.215 949.863 1554.358 1005.61 1553.942 1066.835 1553.484 1118.343 1536.068 1115.187 1516.369 Z" fill="#000000" fill-opacity="1" stroke="none"/>
    <path id="Center-2" d="M1124.009 1525.839 C1120.7 1506.711 1069.101 1494.689 1013.241 1497.614 961.952 1500.299 920.999 1515.007 917.938 1531.49 914.69 1548.971 954.584 1563.965 1011.787 1563.999 1074.743 1564.037 1127.556 1546.34 1124.009 1525.839 Z" fill="#c4b58a" fill-opacity="1" stroke="none"/>
   </g>
  </g>
  <g id="Key-copy-2">
   <g id="Cap-3">
    <defs>
     <linearGradient id="linear-gradient-9" gradientUnits="userSpaceOnUse" x1="1132.93" y1="1674.525" x2="1600.804" y2="1640.549">
      <stop offset="0" stop-color="#c4b58a" stop-opacity="1"/>
      <stop offset="1" stop-color="#121212" stop-opacity="1"/>
     </linearGradient>
    </defs>
    <path id="Bottom-3" d="M1433.458 1588.569 C1433.374 1584.402 1433.525 1547.517 1433.525 1547.517 1433.525 1547.517 1196.971 1554.39 1196.971 1554.39 1196.971 1554.39 1197.048 1591.193 1197.007 1594.383 1196.738 1615.306 1242.628 1634.455 1312.265 1635.211 1391.7 1636.073 1433.828 1606.929 1433.458 1588.569 Z" fill-opacity="1" fill="url(#linear-gradient-9)" stroke="none"/>
    <path id="Rim-3" d="M1432.695 1548.632 C1427.327 1521.532 1368.007 1505.103 1305.624 1509.277 1248.902 1513.072 1202.843 1533.214 1197.907 1556.183 1192.54 1581.157 1236.601 1603.497 1302.872 1604.091 1377.021 1604.754 1438.632 1578.61 1432.695 1548.632 Z" fill="#afa589" fill-opacity="1" stroke="none"/>
    <path id="Shadow-3" d="M1410.918 1546.048 C1407.968 1527.64 1357.919 1516.388 1303.426 1519.59 1253.31 1522.535 1213.15 1537.044 1210.042 1552.995 1206.751 1569.894 1245.594 1584.037 1301.341 1583.621 1362.566 1583.164 1414.074 1565.747 1410.918 1546.048 Z" fill="#000000" fill-opacity="1" stroke="none"/>
    <path id="Center-3" d="M1419.74 1555.518 C1416.431 1536.39 1364.832 1524.368 1308.972 1527.293 1257.683 1529.978 1216.73 1544.686 1213.669 1561.169 1210.422 1578.65 1250.315 1593.644 1307.518 1593.678 1370.474 1593.716 1423.287 1576.019 1419.74 1555.518 Z" fill="#c4b58a" fill-opacity="1" stroke="none"/>
   </g>
  </g>
  <g id="Key-copy-3">
   <g id="Cap-4">
    <defs>
     <linearGradient id="linear-gradient-10" gradientUnits="userSpaceOnUse" x1="1411.701" y1="1702.084" x2="1879.575" y2="1668.108">
      <stop offset="0" stop-color="#c4b58a" stop-opacity="1"/>
      <stop offset="1" stop-color="#121212" stop-opacity="1"/>
     </linearGradient>
    </defs>
    <path id="Bottom-4" d="M1712.229 1616.128 C1712.146 1611.961 1712.296 1575.076 1712.296 1575.076 1712.296 1575.076 1475.743 1581.949 1475.743 1581.949 1475.743 1581.949 1475.819 1618.752 1475.778 1621.943 1475.51 1642.865 1521.4 1662.014 1591.037 1662.77 1670.472 1663.632 1712.599 1634.488 1712.229 1616.128 Z" fill-opacity="1" fill="url(#linear-gradient-10)" stroke="none"/>
    <path id="Rim-4" d="M1711.466 1576.192 C1706.099 1549.092 1646.778 1532.663 1584.395 1536.836 1527.673 1540.631 1481.615 1560.773 1476.678 1583.742 1471.311 1608.716 1515.372 1631.056 1581.643 1631.65 1655.793 1632.314 1717.403 1606.169 1711.466 1576.192 Z" fill="#afa589" fill-opacity="1" stroke="none"/>
    <path id="Shadow-4" d="M1689.689 1573.607 C1686.74 1555.199 1636.691 1543.947 1582.198 1547.149 1532.081 1550.094 1491.921 1564.603 1488.814 1580.554 1485.522 1597.453 1524.365 1611.596 1580.112 1611.18 1641.338 1610.723 1692.845 1593.306 1689.689 1573.607 Z" fill="#000000" fill-opacity="1" stroke="none"/>
    <path id="Center-4" d="M1698.512 1583.077 C1695.203 1563.949 1643.604 1551.927 1587.744 1554.852 1536.455 1557.537 1495.502 1572.245 1492.44 1588.728 1489.193 1606.209 1529.086 1621.203 1586.29 1621.238 1649.246 1621.275 1702.058 1603.578 1698.512 1583.077 Z" fill="#c4b58a" fill-opacity="1" stroke="none"/>
   </g>
  </g>
 </g>
 <g id="Top-Row-Keys">
  <g id="Key-1">
   <g id="Cap-5">
    <defs>
     <linearGradient id="linear-gradient-11" gradientUnits="userSpaceOnUse" x1="386.712" y1="1392.574" x2="854.586" y2="1358.597">
      <stop offset="0" stop-color="#c4b58a" stop-opacity="1"/>
      <stop offset="1" stop-color="#121212" stop-opacity="1"/>
     </linearGradient>
    </defs>
    <path id="Bottom-5" d="M687.241 1306.618 C687.157 1302.451 687.307 1265.566 687.307 1265.566 687.307 1265.566 450.754 1272.439 450.754 1272.439 450.754 1272.439 450.83 1309.242 450.789 1312.432 450.521 1333.355 496.41 1352.503 566.048 1353.259 645.483 1354.122 687.61 1324.977 687.241 1306.618 Z" fill-opacity="1" fill="url(#linear-gradient-11)" stroke="none"/>
    <path id="Rim-5" d="M686.477 1266.681 C681.11 1239.581 621.789 1223.152 559.406 1227.326 502.684 1231.121 456.625 1251.263 451.689 1274.231 446.322 1299.205 490.383 1321.546 556.654 1322.139 630.804 1322.803 692.414 1296.658 686.477 1266.681 Z" fill="#afa589" fill-opacity="1" stroke="none"/>
    <path id="Shadow-5" d="M664.7 1264.097 C661.751 1245.688 611.702 1234.437 557.209 1237.639 507.092 1240.584 466.932 1255.092 463.825 1271.044 460.533 1287.943 499.376 1302.085 555.123 1301.669 616.349 1301.212 667.857 1283.795 664.7 1264.097 Z" fill="#000000" fill-opacity="1" stroke="none"/>
    <path id="Center-5" d="M673.523 1273.567 C670.214 1254.439 618.615 1242.417 562.755 1245.342 511.466 1248.027 470.513 1262.734 467.451 1279.217 464.204 1296.698 504.097 1311.693 561.301 1311.727 624.257 1311.765 677.07 1294.068 673.523 1273.567 Z" fill="#c4b58a" fill-opacity="1" stroke="none"/>
   </g>
  </g>
  <g id="Key-copy-1">
   <g id="Cap-6">
    <defs>
     <linearGradient id="linear-gradient-12" gradientUnits="userSpaceOnUse" x1="663.364" y1="1421.193" x2="1131.238" y2="1387.217">
      <stop offset="0" stop-color="#c4b58a" stop-opacity="1"/>
      <stop offset="1" stop-color="#121212" stop-opacity="1"/>
     </linearGradient>
    </defs>
    <path id="Bottom-6" d="M963.892 1335.237 C963.808 1331.07 963.959 1294.185 963.959 1294.185 963.959 1294.185 727.405 1301.058 727.405 1301.058 727.405 1301.058 727.482 1337.861 727.441 1341.051 727.172 1361.974 773.062 1381.123 842.699 1381.879 922.134 1382.741 964.262 1353.597 963.892 1335.237 Z" fill-opacity="1" fill="url(#linear-gradient-12)" stroke="none"/>
    <path id="Rim-6" d="M963.129 1295.3 C957.761 1268.2 898.441 1251.771 836.058 1255.945 779.336 1259.74 733.277 1279.882 728.341 1302.85 722.974 1327.824 767.035 1350.165 833.306 1350.758 907.455 1351.422 969.066 1325.277 963.129 1295.3 Z" fill="#afa589" fill-opacity="1" stroke="none"/>
    <path id="Shadow-6" d="M941.352 1292.716 C938.402 1274.308 888.354 1263.056 833.86 1266.258 783.744 1269.203 743.584 1283.712 740.477 1299.663 737.185 1316.562 776.028 1330.705 831.775 1330.288 893.001 1329.831 944.508 1312.415 941.352 1292.716 Z" fill="#000000" fill-opacity="1" stroke="none"/>
    <path id="Center-6" d="M950.174 1302.186 C946.865 1283.058 895.266 1271.036 839.406 1273.961 788.117 1276.646 747.164 1291.353 744.103 1307.837 740.856 1325.318 780.749 1340.312 837.953 1340.346 900.909 1340.384 953.721 1322.687 950.174 1302.186 Z" fill="#c4b58a" fill-opacity="1" stroke="none"/>
   </g>
  </g>
  <g id="Key-copy-1-1">
   <g id="Cap-7">
    <defs>
     <linearGradient id="linear-gradient-13" gradientUnits="userSpaceOnUse" x1="953.795" y1="1449.812" x2="1421.669" y2="1415.836">
      <stop offset="0" stop-color="#c4b58a" stop-opacity="1"/>
      <stop offset="1" stop-color="#121212" stop-opacity="1"/>
     </linearGradient>
    </defs>
    <path id="Bottom-7" d="M1254.323 1363.856 C1254.24 1359.689 1254.39 1322.804 1254.39 1322.804 1254.39 1322.804 1017.837 1329.677 1017.837 1329.677 1017.837 1329.677 1017.913 1366.48 1017.872 1369.67 1017.604 1390.593 1063.493 1409.742 1133.13 1410.498 1212.566 1411.36 1254.693 1382.216 1254.323 1363.856 Z" fill-opacity="1" fill="url(#linear-gradient-13)" stroke="none"/>
    <path id="Rim-7" d="M1253.56 1323.919 C1248.193 1296.819 1188.872 1280.39 1126.489 1284.564 1069.767 1288.359 1023.708 1308.501 1018.772 1331.47 1013.405 1356.444 1057.466 1378.784 1123.737 1379.377 1197.887 1380.041 1259.497 1353.896 1253.56 1323.919 Z" fill="#afa589" fill-opacity="1" stroke="none"/>
    <path id="Shadow-7" d="M1231.783 1321.335 C1228.834 1302.927 1178.785 1291.675 1124.292 1294.877 1074.175 1297.822 1034.015 1312.331 1030.908 1328.282 1027.616 1345.181 1066.459 1359.324 1122.206 1358.908 1183.432 1358.45 1234.939 1341.034 1231.783 1321.335 Z" fill="#000000" fill-opacity="1" stroke="none"/>
    <path id="Center-7" d="M1240.606 1330.805 C1237.297 1311.677 1185.698 1299.655 1129.838 1302.58 1078.549 1305.265 1037.596 1319.972 1034.534 1336.456 1031.287 1353.937 1071.18 1368.931 1128.384 1368.965 1191.34 1369.003 1244.152 1351.306 1240.606 1330.805 Z" fill="#c4b58a" fill-opacity="1" stroke="none"/>
   </g>
  </g>
  <g id="Key-copy-2-1">
   <g id="Cap-8">
    <defs>
     <linearGradient id="linear-gradient-14" gradientUnits="userSpaceOnUse" x1="1249.526" y1="1479.491" x2="1717.4" y2="1445.515">
      <stop offset="0" stop-color="#c4b58a" stop-opacity="1"/>
      <stop offset="1" stop-color="#121212" stop-opacity="1"/>
     </linearGradient>
    </defs>
    <path id="Bottom-8" d="M1550.054 1393.535 C1549.971 1389.368 1550.121 1352.483 1550.121 1352.483 1550.121 1352.483 1313.568 1359.356 1313.568 1359.356 1313.568 1359.356 1313.644 1396.159 1313.603 1399.349 1313.335 1420.272 1359.224 1439.421 1428.862 1440.177 1508.297 1441.039 1550.424 1411.895 1550.054 1393.535 Z" fill-opacity="1" fill="url(#linear-gradient-14)" stroke="none"/>
    <path id="Rim-8" d="M1549.291 1353.598 C1543.924 1326.498 1484.603 1310.069 1422.22 1314.243 1365.498 1318.038 1319.439 1338.18 1314.503 1361.149 1309.136 1386.123 1353.197 1408.463 1419.468 1409.057 1493.618 1409.72 1555.228 1383.576 1549.291 1353.598 Z" fill="#afa589" fill-opacity="1" stroke="none"/>
    <path id="Shadow-8" d="M1527.514 1351.014 C1524.565 1332.606 1474.516 1321.354 1420.022 1324.556 1369.906 1327.501 1329.746 1342.01 1326.639 1357.961 1323.347 1374.86 1362.19 1389.003 1417.937 1388.587 1479.163 1388.129 1530.67 1370.713 1527.514 1351.014 Z" fill="#000000" fill-opacity="1" stroke="none"/>
    <path id="Center-8" d="M1536.337 1360.484 C1533.028 1341.356 1481.429 1329.334 1425.569 1332.259 1374.28 1334.944 1333.327 1349.651 1330.265 1366.135 1327.018 1383.616 1366.911 1398.61 1424.115 1398.644 1487.071 1398.682 1539.883 1380.985 1536.337 1360.484 Z" fill="#c4b58a" fill-opacity="1" stroke="none"/>
   </g>
  </g>
  <g id="Key-copy-3-1">
   <g id="Cap-9">
    <defs>
     <linearGradient id="linear-gradient-15" gradientUnits="userSpaceOnUse" x1="1528.298" y1="1507.05" x2="1996.172" y2="1473.074">
      <stop offset="0" stop-color="#c4b58a" stop-opacity="1"/>
      <stop offset="1" stop-color="#121212" stop-opacity="1"/>
     </linearGradient>
    </defs>
    <path id="Bottom-9" d="M1828.826 1421.094 C1828.742 1416.927 1828.893 1380.042 1828.893 1380.042 1828.893 1380.042 1592.339 1386.915 1592.339 1386.915 1592.339 1386.915 1592.416 1423.718 1592.375 1426.908 1592.106 1447.831 1637.996 1466.98 1707.633 1467.736 1787.068 1468.598 1829.196 1439.454 1828.826 1421.094 Z" fill-opacity="1" fill="url(#linear-gradient-15)" stroke="none"/>
    <path id="Rim-9" d="M1828.063 1381.157 C1822.695 1354.057 1763.375 1337.628 1700.992 1341.802 1644.27 1345.597 1598.211 1365.739 1593.275 1388.708 1587.908 1413.682 1631.969 1436.022 1698.24 1436.616 1772.389 1437.28 1834 1411.135 1828.063 1381.157 Z" fill="#afa589" fill-opacity="1" stroke="none"/>
    <path id="Shadow-9" d="M1806.286 1378.573 C1803.336 1360.165 1753.287 1348.913 1698.794 1352.115 1648.678 1355.06 1608.518 1369.569 1605.41 1385.52 1602.119 1402.419 1640.962 1416.562 1696.709 1416.146 1757.934 1415.689 1809.442 1398.272 1806.286 1378.573 Z" fill="#000000" fill-opacity="1" stroke="none"/>
    <path id="Center-9" d="M1815.108 1388.043 C1811.799 1368.915 1760.2 1356.893 1704.34 1359.818 1653.051 1362.503 1612.098 1377.211 1609.037 1393.694 1605.79 1411.175 1645.683 1426.169 1702.886 1426.203 1765.842 1426.241 1818.655 1408.544 1815.108 1388.043 Z" fill="#c4b58a" fill-opacity="1" stroke="none"/>
   </g>
  </g>
 </g>
 <g id="Front-Panel">
  <defs>
   <linearGradient id="linear-gradient-16" gradientUnits="userSpaceOnUse" x1="674.558" y1="2081.297" x2="160.942" y2="1788.728">
    <stop offset="0.037" stop-color="#929292" stop-opacity="1"/>
    <stop offset="0.615" stop-color="#929292" stop-opacity="1"/>
    <stop offset="1" stop-color="#000000" stop-opacity="1"/>
   </linearGradient>
  </defs>
  <path id="Left-Shadow" d="M50.04 1587.689 C50.04 1587.689 82.685 1575.084 82.685 1575.084 82.685 1575.084 118.362 1747.49 268.47 1794.826 549.156 1883.339 880.071 1919.308 880.071 1919.308 L870.531 2017.417 C870.531 2017.417 105.274 1910.248 45.876 1811.705 7.51 1748.054 50.04 1587.689 50.04 1587.689 Z" fill-opacity="1" fill="url(#linear-gradient-16)" stroke="none"/>
  <defs>
   <linearGradient id="linear-gradient-17" gradientUnits="userSpaceOnUse" x1="672.5" y1="2095.948" x2="159.04" y2="1794.534">
    <stop offset="0" stop-color="#282a29" stop-opacity="1"/>
    <stop offset="0.513" stop-color="#424242" stop-opacity="1"/>
    <stop offset="1" stop-color="#292929" stop-opacity="1"/>
   </linearGradient>
  </defs>
  <path id="Left" d="M49.056 1586.01 C49.056 1586.01 80.647 1574.43 80.647 1574.43 80.647 1574.43 116.242 1760.21 266.35 1807.546 547.036 1896.059 877.951 1932.028 877.951 1932.028 L868.412 2030.136 C868.412 2030.136 103.154 1922.968 43.757 1824.425 5.391 1760.774 49.056 1586.01 49.056 1586.01 Z" fill-opacity="1" fill="url(#linear-gradient-17)" stroke="none"/>
  <defs>
   <linearGradient id="linear-gradient-18" gradientUnits="userSpaceOnUse" x1="2243.468" y1="2423.5" x2="2299.21" y2="1917.044">
    <stop offset="0.817" stop-color="#929292" stop-opacity="1"/>
    <stop offset="1" stop-color="#2e2e2e" stop-opacity="1"/>
   </linearGradient>
  </defs>
  <path id="Right-shadow" d="M2090.795 1755.775 C2107.415 1729.863 2054.143 1341.493 2054.143 1341.493 2054.143 1341.493 2021.083 1347.118 2009.98 1347.806 1910.555 1353.971 1749.406 1919.135 1612.509 1962.298 1500.853 1997.503 1215.553 1938.424 882.447 1917.921 850.191 1915.936 870.723 2016.942 870.723 2016.942 870.723 2016.942 1686.65 2137.242 1869.526 2018.554 2008.939 1928.074 1955.863 1966.16 2090.795 1755.775 Z" fill-opacity="1" fill="url(#linear-gradient-18)" stroke="none"/>
  <defs>
   <linearGradient id="linear-gradient-19" gradientUnits="userSpaceOnUse" x1="1111.46" y1="2266.251" x2="1894.424" y2="1861.49">
    <stop offset="0" stop-color="#292929" stop-opacity="1"/>
    <stop offset="1" stop-color="#000000" stop-opacity="1"/>
   </linearGradient>
  </defs>
  <path id="Right" d="M2096.914 1795.884 C2110.873 1775.553 2077.639 1510.827 2063.065 1400.538 2059.191 1371.221 2056.635 1352.817 2056.635 1352.817 2056.635 1352.817 2028.61 1363.08 2017.138 1363.539 1914.396 1367.643 1759.199 1937.184 1620.989 1977.138 1508.571 2009.635 1211.347 1959.84 874.572 1932.486 841.881 1929.83 865.196 2030.433 865.196 2030.433 865.196 2030.433 1682.817 2164.748 1867.325 2052.437 2009.195 1966.081 1954.964 2002.625 2096.914 1795.884 Z" fill-opacity="1" fill="url(#linear-gradient-19)" stroke="none"/>
 </g>
 <g id="Front-Side-Panel">
  <path id="Path-copy-5" d="M2019.238 1817.219 C2138.253 1636.064 2147.793 1542.551 2147.793 1542.551 L2152.033 994.548 C2152.033 994.548 2079.999 994.128 2079.955 994.548 2066.001 1127.545 2073.577 1268.953 1982.438 1370.836 1980.734 1372.741 2018.905 1817.725 2019.238 1817.219 Z" fill="#2e2d2d" fill-opacity="1" stroke="none"/>
  <path id="Path-4" d="M2019.537 1911.42 C2138.552 1730.266 2111.112 1780.008 2146.733 1724.866 2147.18 1724.173 2152.033 992.428 2152.033 992.428 L2086.315 993.488 C2086.315 993.488 2087.309 1313.91 1985.618 1380.376 1944.161 1407.473 2019.204 1911.926 2019.537 1911.42 Z" fill="#000000" fill-opacity="1" stroke="none"/>
 </g>
 <g id="Stablizer">
  <path id="Path-copy-6" d="M2164.752 548.301 L2168.992 778.314 C2168.992 778.314 2221.99 811.173 2221.99 880.071 2221.99 948.969 2163.692 994.548 2163.692 994.548 L2094.794 994.548 C2094.794 994.548 2165.812 944.729 2165.812 879.011 2165.812 806.933 2079.955 778.314 2079.955 778.314 2079.955 778.314 2079.955 556.781 2079.955 556.781 2079.955 556.781 2088.435 548.301 2088.435 548.301 L2164.752 548.301 Z" fill="#000000" fill-opacity="1" stroke="none"/>
  <defs>
   <linearGradient id="linear-gradient-20" gradientUnits="userSpaceOnUse" x1="2060.048" y1="562.343" x2="2116.735" y2="560.496">
    <stop offset="0" stop-color="#b1b1b1" stop-opacity="1"/>
    <stop offset="1" stop-color="#747474" stop-opacity="1"/>
   </linearGradient>
  </defs>
  <path id="Path-5" d="M2149.913 556.781 L2154.153 778.314 C2154.153 778.314 2207.151 811.173 2207.151 880.071 2207.151 948.969 2148.853 994.548 2148.853 994.548 L2079.955 994.548 C2079.955 994.548 2150.973 944.729 2150.973 879.011 2150.973 806.933 2079.955 778.314 2079.955 778.314 2079.955 778.314 2079.955 556.781 2079.955 556.781 L2149.913 556.781 Z" fill-opacity="1" fill="url(#linear-gradient-20)" stroke="none"/>
 </g>
</svg>
